<svg xmlns="http://www.w3.org/2000/svg" width="261.857" height="78.031" viewBox="0 0 261.857 78.031">
  <g id="Group_2" data-name="Group 2" transform="translate(6613.735 -8764.558)">
    <g id="Group_1" data-name="Group 1" transform="translate(-6613.735 8764.558)">
      <path id="Path_1" data-name="Path 1" d="M-5930.237,8875.214a5.46,5.46,0,0,0-1.737-4.457,7.232,7.232,0,0,0-4.754-1.439h-11.566v12.892H-5937a7.409,7.409,0,0,0,2.766-.5,5.99,5.99,0,0,0,2.148-1.441,6.445,6.445,0,0,0,1.372-2.217A8.021,8.021,0,0,0-5930.237,8875.214Z" transform="translate(6130.286 -8840.666)" fill="none"/>
      <path id="Path_2" data-name="Path 2" d="M-6577.047,8871.141a11.021,11.021,0,0,0-3.771-2.576,12.555,12.555,0,0,0-4.892-.92,12.717,12.717,0,0,0-4.914.92,10.987,10.987,0,0,0-3.795,2.576,11.3,11.3,0,0,0-2.423,3.979,14.907,14.907,0,0,0-.846,5.129,17.289,17.289,0,0,0,.366,3.581,24.5,24.5,0,0,1,2.788-.778,19.132,19.132,0,0,1,4.252-.411,18.3,18.3,0,0,1,4.435.5,18.382,18.382,0,0,1,3.68,1.326,18.968,18.968,0,0,1,3.086,1.9,29.682,29.682,0,0,1,2.651,2.263,11.6,11.6,0,0,0,1.966-3.726,15.069,15.069,0,0,0,.686-4.654,14.907,14.907,0,0,0-.845-5.129A11.316,11.316,0,0,0-6577.047,8871.141Z" transform="translate(6602.077 -8839.451)" fill="none"/>
      <path id="Path_3" data-name="Path 3" d="M-6050.427,8869.317v8.083a68.413,68.413,0,0,0,2.721-8.083Z" transform="translate(6204.486 -8840.666)" fill="none"/>
      <path id="Path_4" data-name="Path 4" d="M-6584.854,8936.67a12.581,12.581,0,0,0-3.566.368,15.073,15.073,0,0,0-2.194.736,10.784,10.784,0,0,0,4.115,3.8,12.391,12.391,0,0,0,5.9,1.358,11.989,11.989,0,0,0,6.034-1.509,23.333,23.333,0,0,0-4.5-3.292A12.343,12.343,0,0,0-6584.854,8936.67Z" transform="translate(6596.938 -8889.597)" fill="none"/>
      <path id="Path_5" data-name="Path 5" d="M-6576.385,8886.4a7.248,7.248,0,0,1-2.469-.411,10.55,10.55,0,0,1-2.194-1.1,15.1,15.1,0,0,1-2.058-1.623q-1.006-.936-2.012-1.989a15.334,15.334,0,0,0,3.006-5.006,18.161,18.161,0,0,0,1.063-6.377,18.707,18.707,0,0,0-1.165-6.742,14.647,14.647,0,0,0-3.309-5.189,14.958,14.958,0,0,0-5.159-3.338,18.153,18.153,0,0,0-6.711-1.187,18.153,18.153,0,0,0-6.711,1.188,14.958,14.958,0,0,0-5.159,3.338,14.636,14.636,0,0,0-3.31,5.189,18.728,18.728,0,0,0-1.164,6.742,18.691,18.691,0,0,0,1.166,6.743,14.643,14.643,0,0,0,3.314,5.188,14.95,14.95,0,0,0,5.166,3.338,18.2,18.2,0,0,0,6.72,1.188,17.056,17.056,0,0,0,9.007-2.378q1.188,1.235,2.4,2.378a17.7,17.7,0,0,0,2.561,2.012,13.045,13.045,0,0,0,2.9,1.394,10.484,10.484,0,0,0,3.382.526q3.52,0,3.521-2.012Q-6573.6,8886.4-6576.385,8886.4Zm-21.015-3.933a12.391,12.391,0,0,1-5.9-1.357,10.8,10.8,0,0,1-4.115-3.8,14.975,14.975,0,0,1,2.2-.736,12.535,12.535,0,0,1,3.565-.368,12.332,12.332,0,0,1,5.782,1.463,23.187,23.187,0,0,1,4.5,3.291A11.989,11.989,0,0,1-6597.4,8882.467Zm11.276-7.885a11.62,11.62,0,0,1-1.965,3.726,29.867,29.867,0,0,0-2.652-2.264,19.179,19.179,0,0,0-3.086-1.9,18.52,18.52,0,0,0-3.68-1.326,18.349,18.349,0,0,0-4.435-.5,19.075,19.075,0,0,0-4.252.412,24.978,24.978,0,0,0-2.788.776,17.332,17.332,0,0,1-.365-3.58,14.88,14.88,0,0,1,.846-5.129,11.255,11.255,0,0,1,2.423-3.978,10.974,10.974,0,0,1,3.794-2.576,12.724,12.724,0,0,1,4.914-.92,12.555,12.555,0,0,1,4.892.92,11.043,11.043,0,0,1,3.772,2.576,11.283,11.283,0,0,1,2.423,3.978,14.9,14.9,0,0,1,.845,5.129A15.075,15.075,0,0,1-6586.123,8874.582Z" transform="translate(6613.735 -8829.131)"/>
      <path id="Path_6" data-name="Path 6" d="M-6449.75,8853.941a2.393,2.393,0,0,0-1.6-.5,2.375,2.375,0,0,0-1.623.5,1.675,1.675,0,0,0-.571,1.325V8873.1a9.371,9.371,0,0,1-.755,3.816,8.533,8.533,0,0,1-2.125,2.949,9.781,9.781,0,0,1-3.292,1.921,12.6,12.6,0,0,1-4.252.685,12.992,12.992,0,0,1-4.3-.685,9.734,9.734,0,0,1-3.36-1.943,9.192,9.192,0,0,1-2.194-2.972,8.807,8.807,0,0,1-.8-3.771v-17.829a1.652,1.652,0,0,0-.595-1.325,2.391,2.391,0,0,0-1.6-.5,2.375,2.375,0,0,0-1.623.5,1.679,1.679,0,0,0-.571,1.325V8873.1a12.15,12.15,0,0,0,1.143,5.257,12.919,12.919,0,0,0,3.154,4.206,14.737,14.737,0,0,0,4.754,2.79,17.177,17.177,0,0,0,5.943,1,16.844,16.844,0,0,0,5.875-1,14.53,14.53,0,0,0,4.709-2.79,13.088,13.088,0,0,0,3.131-4.206,12.164,12.164,0,0,0,1.143-5.257v-17.829A1.651,1.651,0,0,0-6449.75,8853.941Z" transform="translate(6515.854 -8829.131)"/>
      <path id="Path_7" data-name="Path 7" d="M-6322.871,8853.941a2.4,2.4,0,0,0-1.6-.5,2.374,2.374,0,0,0-1.623.5,1.679,1.679,0,0,0-.572,1.325v22.721L-6346,8853.941a1.045,1.045,0,0,0-.663-.412,4.573,4.573,0,0,0-.937-.091,2.373,2.373,0,0,0-1.623.5,1.676,1.676,0,0,0-.572,1.325v29.257a1.677,1.677,0,0,0,.572,1.326,2.379,2.379,0,0,0,1.623.5,2.38,2.38,0,0,0,1.623-.5,1.679,1.679,0,0,0,.571-1.326v-22.948l18.743,23.36a4.747,4.747,0,0,0,1.121,1.12,2.262,2.262,0,0,0,1.211.3,2.12,2.12,0,0,0,1.554-.5,1.791,1.791,0,0,0,.5-1.326v-29.257A1.652,1.652,0,0,0-6322.871,8853.941Z" transform="translate(6421.982 -8829.131)"/>
      <path id="Path_8" data-name="Path 8" d="M-6226.034,8885.85a2.379,2.379,0,0,0,1.622.5,2.383,2.383,0,0,0,1.624-.5,1.679,1.679,0,0,0,.571-1.326v-29.257a1.65,1.65,0,0,0-.594-1.325,2.4,2.4,0,0,0-1.6-.5,2.374,2.374,0,0,0-1.622.5,1.675,1.675,0,0,0-.571,1.325v29.257A1.676,1.676,0,0,0-6226.034,8885.85Z" transform="translate(6332.482 -8829.131)"/>
      <path id="Path_9" data-name="Path 9" d="M-6184.22,8885.21a2.037,2.037,0,0,0,1.965,1.189,2.038,2.038,0,0,0,1.967-1.189l14.264-28.572a2.973,2.973,0,0,0,.205-1.6,1.7,1.7,0,0,0-1.028-1.326,2.345,2.345,0,0,0-1.052-.274,2.318,2.318,0,0,0-1.212.342,2.166,2.166,0,0,0-.846.892l-12.3,25.692-12.3-25.692a2.159,2.159,0,0,0-.846-.892,2.314,2.314,0,0,0-1.211-.342,2.342,2.342,0,0,0-1.052.274,1.694,1.694,0,0,0-1.028,1.326,2.937,2.937,0,0,0,.206,1.6Z" transform="translate(6312.222 -8829.131)"/>
      <path id="Path_10" data-name="Path 10" d="M-6030.3,8910.646a1.668,1.668,0,0,0,1.279-.617,2.1,2.1,0,0,0,.549-1.439,1.772,1.772,0,0,0-.525-1.3,1.777,1.777,0,0,0-1.3-.525h-10.339q-.8,1.939-1.719,3.886Z" transform="translate(6198.626 -8867.869)"/>
      <path id="Path_11" data-name="Path 11" d="M-6014.22,8858.994a1.666,1.666,0,0,0,1.28-.617,2.1,2.1,0,0,0,.548-1.439,1.77,1.77,0,0,0-.526-1.3,1.772,1.772,0,0,0-1.3-.525h-8.645q-.335,1.913-.819,3.885Z" transform="translate(6185.058 -8830.344)"/>
      <path id="Path_12" data-name="Path 12" d="M-6044.942,8942.653h-17.143v-5.744q-.7,1.3-1.456,2.592-1.409,2.42-2.934,4.7v.51a1.679,1.679,0,0,0,.572,1.326,2.379,2.379,0,0,0,1.623.5h19.337a1.669,1.669,0,0,0,1.28-.617,2.1,2.1,0,0,0,.549-1.44,1.773,1.773,0,0,0-.526-1.3A1.774,1.774,0,0,0-6044.942,8942.653Z" transform="translate(6216.146 -8889.773)"/>
      <path id="Path_13" data-name="Path 13" d="M-5943.083,8874.676a9.186,9.186,0,0,0,4.092-3.59,11.147,11.147,0,0,0,1.485-5.965q0-4.8-2.812-7.406t-8.069-2.605h-14.126a1.615,1.615,0,0,0-1.828,1.828v28.8a1.676,1.676,0,0,0,.571,1.326,2.383,2.383,0,0,0,1.623.5,2.388,2.388,0,0,0,1.623-.5,1.682,1.682,0,0,0,.571-1.326v-9.965h12.435l6.309,10.926a1.635,1.635,0,0,0,1.509.867,2.587,2.587,0,0,0,1.326-.41,2.222,2.222,0,0,0,1.143-1.234,1.676,1.676,0,0,0-.184-1.418Zm-2.812-3.291a7.4,7.4,0,0,1-2.765.5h-11.292v-12.893h11.565a7.233,7.233,0,0,1,4.754,1.439,5.464,5.464,0,0,1,1.737,4.459,8.013,8.013,0,0,1-.479,2.834,6.437,6.437,0,0,1-1.371,2.217A6,6,0,0,1-5945.9,8871.385Z" transform="translate(6141.944 -8830.344)"/>
      <path id="Path_14" data-name="Path 14" d="M-5829.913,8870.924a13.582,13.582,0,0,0-3.543-2.038,36.35,36.35,0,0,0-5.188-1.625,20.953,20.953,0,0,1-6.217-2.289,3.676,3.676,0,0,1-1.874-3.16,4.021,4.021,0,0,1,.5-1.968,4.923,4.923,0,0,1,1.395-1.58,7.147,7.147,0,0,1,2.1-1.054,8.389,8.389,0,0,1,2.583-.39q4.8,0,7.5,1.921a2.5,2.5,0,0,0,1.509.5,2.012,2.012,0,0,0,1.737-.915,1.753,1.753,0,0,0,.137-1.685,3.586,3.586,0,0,0-1.234-1.5,11.119,11.119,0,0,0-3.909-1.672,25.609,25.609,0,0,0-5.737-.542,14.3,14.3,0,0,0-4.458.664,10.267,10.267,0,0,0-3.474,1.877,8.559,8.559,0,0,0-2.24,2.885,8.52,8.52,0,0,0-.8,3.73,7.2,7.2,0,0,0,.595,2.978,6.547,6.547,0,0,0,1.92,2.4,14.151,14.151,0,0,0,3.451,1.969,40.533,40.533,0,0,0,5.234,1.717,34.861,34.861,0,0,1,3.863,1.214,12.441,12.441,0,0,1,2.56,1.3,4.465,4.465,0,0,1,1.417,1.488,3.732,3.732,0,0,1,.434,1.809,4.185,4.185,0,0,1-2.24,3.8,11.993,11.993,0,0,1-6.125,1.329,13.639,13.639,0,0,1-4.914-.732,13.2,13.2,0,0,1-2.995-1.577,16.621,16.621,0,0,1-1.875-1.577,2.146,2.146,0,0,0-1.509-.73,1.828,1.828,0,0,0-1.28.57,2.028,2.028,0,0,0-.594,1.531,3.4,3.4,0,0,0,1.188,2.44,10.8,10.8,0,0,0,3.155,2.04,21.739,21.739,0,0,0,4.434,1.4,24.62,24.62,0,0,0,5.075.52,17.865,17.865,0,0,0,4.96-.641,11.566,11.566,0,0,0,3.794-1.831,8.3,8.3,0,0,0,2.446-2.907,8.468,8.468,0,0,0,.869-3.869,7.89,7.89,0,0,0-.64-3.229A7.159,7.159,0,0,0-5829.913,8870.924Z" transform="translate(6061.186 -8828.765)"/>
      <path id="Path_15" data-name="Path 15" d="M-5718.856,8883.75a1.773,1.773,0,0,0-1.3-.525H-5737.3v-10.1h14.263a1.665,1.665,0,0,0,1.28-.617,2.1,2.1,0,0,0,.549-1.439,1.773,1.773,0,0,0-.526-1.3,1.778,1.778,0,0,0-1.3-.525H-5737.3v-10.24h16.777a1.664,1.664,0,0,0,1.28-.617,2.1,2.1,0,0,0,.549-1.439,1.769,1.769,0,0,0-.526-1.3,1.773,1.773,0,0,0-1.3-.525H-5739.5a2.384,2.384,0,0,0-1.623.5,1.679,1.679,0,0,0-.572,1.326v28.344a1.679,1.679,0,0,0,.572,1.326,2.374,2.374,0,0,0,1.623.5h19.337a1.665,1.665,0,0,0,1.28-.617,2.094,2.094,0,0,0,.549-1.439A1.775,1.775,0,0,0-5718.856,8883.75Z" transform="translate(5980.188 -8830.344)"/>
      <path id="Path_16" data-name="Path 16" d="M-6050.427,8877.4v2.157h3.925a72.549,72.549,0,0,0,3.39-10.24h-4.593A68.413,68.413,0,0,1-6050.427,8877.4Z" transform="translate(6204.486 -8840.666)" fill="#00eeab"/>
      <path id="Path_17" data-name="Path 17" d="M-6050.427,8925.328q1.175-2.174,2.207-4.36h-2.207Z" transform="translate(6204.486 -8878.191)" fill="#00eeab"/>
      <path id="Path_18" data-name="Path 18" d="M-6126.075,8785.466c.89-9.429-1.475-16.286-6.66-19.309-4.479-2.612-10.337-2.015-16.937,1.725-5.459,3.095-11.194,8.3-16.316,14.783a2.229,2.229,0,0,0,.415,3.169h0a2.225,2.225,0,0,0,3.075-.4c4.769-6.04,10.049-10.855,15.022-13.674,5.07-2.874,9.508-3.5,12.5-1.753,3.547,2.068,5.177,7.552,4.47,15.044-.131,1.389-.338,2.817-.616,4.276h4.524Q-6126.256,8787.357-6126.075,8785.466Z" transform="translate(6288.792 -8764.559)" fill="#00eeab"/>
      <path id="Path_19" data-name="Path 19" d="M-6183.68,8933.928c-5.369,9.209-12.046,16.877-18.8,21.589-6.172,4.307-11.747,5.59-15.294,3.521-2.72-1.586-3.879-4.807-4.344-7.773a2.222,2.222,0,0,0-2.35-1.867h0a2.226,2.226,0,0,0-2.049,2.56c.807,5.151,3.03,8.9,6.5,10.927a11.991,11.991,0,0,0,6.131,1.589c4.145,0,8.916-1.79,13.952-5.3,6.072-4.236,12.049-10.629,17.167-18.3v-8.545Q-6183.214,8933.128-6183.68,8933.928Z" transform="translate(6332.438 -8886.441)" fill="#00eeab"/>
      <path id="Path_20" data-name="Path 20" d="M-6062.085,8909.274v-4.36h2.206q.918-1.944,1.718-3.885h-3.924v-2.158a83.261,83.261,0,0,1-4.39,9.149v8.545q1.521-2.278,2.934-4.7Q-6062.788,8910.576-6062.085,8909.274Z" transform="translate(6216.146 -8862.138)" fill="#00eeab"/>
      <path id="Path_21" data-name="Path 21" d="M-6035.884,8858.994q.486-1.969.818-3.885h-4.523q-.363,1.91-.888,3.885Z" transform="translate(6197.258 -8830.344)" fill="#00eeab"/>
    </g>
    <path id="Path_22" data-name="Path 22" d="M-6235.172,8987.894" transform="translate(-275.029 -162.256)" fill="none" stroke="#000" stroke-width="24"/>
    <path id="Path_23" data-name="Path 23" d="M-6150.1,8812.968" transform="translate(-336.836 -35.17)" fill="none" stroke="#000" stroke-width="24"/>
  </g>
</svg>
